# xmcd CD database file
#
# Track frame offsets:
#	150
#	25691
#	55726
#	87884
#	104753
#	139093
#	162466
#	185755
#	217267
#	240923
#
# Disc length: 3608 seconds
#
# Revision: 0
# Processed by: cddbd v1.5.1PL0 Copyright (c) Steve Scherf et al.
# Submitted via: cdripper 1.0.10
#
DISCID=8b0e160a
DTITLE=Mark Eisenman - Sweet and Lovely
DYEAR=2004
DGENRE=Jazz
TTITLE0=Temperance
TTITLE1=Willow Weep for Me
TTITLE2=Willow Weep for Me
TTITLE3=Reflection in "D"
TTITLE4=Sosumi
TTITLE5=Bird's Assurance
TTITLE6=Sweet and Lovely
TTITLE7=You Don't Know What Love Is
TTITLE8=Gilt Be All Thy Stars
TTITLE9=Someday My Prince Will Come
EXTD=YEAR: 2004
EXTT0=
EXTT1=
EXTT2=
EXTT3=
EXTT4=
EXTT5=
EXTT6=
EXTT7=
EXTT8=
EXTT9=
PLAYORDER=
